<?xml version="1.0"?>
<svg xmlns="http://www.w3.org/2000/svg" height="512px" viewBox="0 0 512 512" width="512px"><path d="m257.859375 286.171875 30.113281-45.171875h-52.699218zm0 0" fill="#006DF0"/><path d="m194.332031 269.441406c7.28125 9.105469 12.738281 19.71875 15.148438 31.558594h22.246093l-23.886718-47.773438zm0 0" fill="#006DF0"/><path d="m147.527344 325.609375c-5.296875 6.339844-14.722656 7.230469-21.136719 1.917969-6.359375-5.300782-7.222656-14.765625-1.917969-21.136719l27.050782-32.464844c-4.859376-1.796875-10.046876-2.925781-15.523438-2.925781-24.816406 0-45 20.183594-45 45 0 24.8125 20.183594 45 45 45 24.8125 0 45-20.1875 45-45 0-8.367188-2.445312-16.113281-6.441406-22.832031zm0 0" fill="#006DF0"/><path d="m376 271c-1.867188 0-3.644531.328125-5.453125.550781l18.871094 37.738281c3.707031 7.414063.703125 16.421876-6.707031 20.128907-7.488282 3.71875-16.441407.640625-20.128907-6.707031l-18.929687-37.859376c-7.796875 8.09375-12.652344 19.046876-12.652344 31.148438 0 24.8125 20.1875 45 45 45s45-20.1875 45-45-20.1875-45-45-45zm0 0" fill="#006DF0"/><path d="m436 0h-360c-41.351562 0-76 34.648438-76 76v360c0 41.351562 34.648438 76 76 76h360c41.351562 0 76-34.648438 76-76v-360c0-41.351562-34.648438-76-76-76zm-60 391c-41.351562 0-75-33.648438-75-75 0-23.882812 11.433594-44.949219 28.882812-58.691406l-7.171874-14.335938-54.230469 81.347656c-.144531.214844-.390625.285157-.542969.488282-3.023438 4.117187-7.5 6.140625-11.839844 6.171875-.027344 0-.054687.019531-.082031.019531h-46.535156c-6.96875 34.191406-37.265625 60-73.480469 60-41.355469 0-75-33.648438-75-75s33.644531-75 75-75c12.816406 0 24.710938 3.53125 35.277344 9.226562l21.914062-26.300781-21.464844-42.925781h-20.726562c-8.289062 0-15-6.710938-15-15s6.710938-15 15-15h75c8.289062 0 15 6.710938 15 15s-6.710938 15-15 15h-20.726562l15 30h86.453124l-12.4375-24.871094c-14.929687-29.835937 6.714844-65.128906 40.257813-65.128906h41.453125c24.8125 0 45 20.1875 45 45s-20.1875 45-45 45c-8.289062 0-15-6.710938-15-15s6.710938-15 15-15c8.277344 0 15-6.722656 15-15s-6.722656-15-15-15h-41.453125c-11.140625 0-18.429687 11.710938-13.417969 21.710938l35.5625 71.128906c6.199219-1.664063 12.59375-2.839844 19.308594-2.839844 41.351562 0 75 33.648438 75 75s-33.648438 75-75 75zm0 0" fill="#006DF0"/></svg>
